<?xml version="1.0" standalone="no"?><!DOCTYPE svg PUBLIC "-//W3C//DTD SVG 1.1//EN" "http://www.w3.org/Graphics/SVG/1.1/DTD/svg11.dtd"><svg class="icon" height="512" viewBox="0 0 1024 1024" version="1.1" xmlns="http://www.w3.org/2000/svg"><path d="M513.503237 500.541017 447.314769 431.267281 275.443329 628.272143 204.985628 565.28253 102.504582 693.368744 817.047578 693.368744 817.047578 565.28253 649.078005 328.596923ZM254.126838 394.08545c47.573505 0 86.135776-37.72316 86.135776-84.267219 0-46.530756-38.566364-84.251869-86.135776-84.251869-47.570435 0-86.135776 37.72316-86.135776 84.251869C167.993109 356.364337 206.557426 394.08545 254.126838 394.08545zM921.496441 726.764342c-0.192382-50.959625 0-489.153666 0-531.820418 0-42.668799-24.427342-66.657142-68.321038-66.827011-43.893696-0.170892-738.092341 0-784.830829 0-46.740534 0-68.547189 29.985942-68.321038 66.827011 0.223081 36.842093 0 493.713518 0 531.820418 0 38.108946 21.659299 67.011206 68.321038 66.827011 46.660716-0.182149 740.015134 0.971118 784.830829 1.044796C897.991098 794.706757 921.689846 777.721921 921.496441 726.764342zM68.344574 729.916125l0-0.002047L68.344574 194.945971l785.697569 0 0 534.970154L68.344574 729.916125zM1023.977487 295.182906c0.013303-53.276391-49.440016-66.827011-68.321038-66.827011l0.86674 509.208421c0 0 15.312754 91.543949-55.141878 91.543949l-798.87673-0.017396c0 18.451234 13.751189 66.739007 68.323085 66.827011 54.56985 0.086981 729.366609 0.005117 784.828782 0 55.463196-0.005117 68.420299-27.606755 68.321038-68.913533C1023.88232 785.696546 1023.969301 348.459297 1023.977487 295.182906z" /></svg>